<?xml version="1.0" encoding="utf-8"?>
<svg version="1.1" id="Layer_1" xmlns="http://www.w3.org/2000/svg" xmlns:xlink="http://www.w3.org/1999/xlink" x="0px" y="0px"
	 viewBox="0 0 1281.337 1637.567" enable-background="new 0 0 1281.337 1637.567" xml:space="preserve">
<g>
	<path d="M1220.731,817.788c-7.591-3.583-26.695-6.76-35.222-16.697c-3.398-4.058-4.707-9.295-6.687-14.089
		c-17.403,6.91-23.707-0.617-28.058-15.874c-37.162,15.591-46.758-9.088-56.085-15.939c-10.591,36.218-62.181,46.361-65.596,15.82
		c-0.855-2.77-0.022-6.796-3.127-8.224c-6.038,8.245-8.938,18.309-13.613,27.344c-3.82,9.057-9.587,17.054-14.446,25.548
		c-8.645,14.625-24.141,33.898-40.654,29.563c-5.01-1.418-5.291-7.542-9.209-10.247c-1.336,5.792,3.59,44.894-44.257,70.476
		c-3.214-5.356-6.676-10.583-10.756-15.333c-4.246-4.786-18.3-41.83-51.713-41.119c-0.162,0.822-0.476,2.467-0.638,3.289
		c3.484,0.422,7.401,0.53,10.085,3.16c8.842,7.988,7.167,11.86,3.712,22.561c-1.601,4.685-2.023,9.717-3.993,14.284
		c-5.135,12.067-6.688,4.421-15.777,32.939c-1.489,4.611-11.197,16.431-15.528,17.422c-12.119,2.857-24.217,5.876-36.596,7.423
		c-3.956-14.544-8.905-11.702-14.381-20.603c-1.461-2.424-2.9-4.967-3.419-7.769c0.465-1.959,1.363-3.776,2.11-5.616
		c-9.29-15.207-6.142-8.941-14.673-16.123c-4.75-3.679-6.86-9.771-11.697-13.353c-1.547-1.623-3.668-0.119-5.443,0.13
		c2.619,3.127,6.092,5.54,8.181,9.111c4.963,8.434-3.891,32.438-1.288,44.647c1.658,8.929,7.021,8.06,8.776,21.609
		c-2.507,0.802-99.289,30.901-104.064,31.045c0.509-9.479,2.327-18.807,4.155-28.091c3.038-14.204,3.656-12.204,9.187-18.926
		c4.696-5.443,7.488-12.357,12.855-17.248c24.339-22.284,107.042-110.547,124.905-126.074c1.623,0.812,3.246,1.623,4.924,2.402
		c2.056-5.919-4.058-9.544-7.034-13.699c7.982-11.912,14.155-35.855,14.965-39.907c1.207,8.764-3.594,12.83-5.53,28.978
		c10.534-3.998,84.293-94.616,89.077-100.829c0.833,1.764,1.753,3.495,2.77,5.172c1.894-2.597,2.997-5.941,5.692-7.856
		c1.493-0.238,3.019-0.097,4.545-0.043c-15.993,12.465-11.593,14.689-77.694,93.557c-4.263,5.724-11.935,6.492-17.248,10.853
		c-7.477,5.248-9.641,15.734-7.001,24.13c2.073,6.47,17.81,17.21,30.006,9.696c11.977-7.935,14.337-18.958,11.286-30.753
		c3.831,0.563,7.791,1.255,11.578,0c-9.094-3.215-8.524,0.871-17.335-6.233c2.121-1.396,4.274-2.749,6.438-4.079
		c9.53,7.864,10.317,8.214,20.332,9.057c0,0.346,0.022,1.039,0.032,1.396c-1.428,0.184-2.835,0.379-4.242,0.584
		c2.067,4.653,0.444,10.042,2.781,14.619c12.295,27.538,46.535,9.604,42.266-14.467c-0.638-4.328-5.161-7.51-4.177-12.098
		c3.585-20.963,24.205-38.994,50.295-33.252c0.898-0.909,1.807-1.807,2.738-2.694c-6.432-8.243-25.578-25.942-7.131-45.383
		c8.013-8.219,33.028,5.174,42.883,6.709c11.86,2.153,23.784,6.092,33.198,13.862c3.008,2.164,2.565,6.168,2.954,9.414
		c0.876-0.119,2.64-0.379,3.527-0.509c2.945-38.722,1.117-38.466,4.523-42.991c1.775-2.976,5.735-2.987,8.105-5.151
		c2.316-4.177,3.852-9.414,8.613-11.524c9.241-4.058,20.397-4.339,29.498,0.325c2.922,1.363,4.523,4.318,6.438,6.763
		c1.082-0.866,2.175-1.721,3.279-2.575c-3.744-5.043-8.386-9.793-14.565-11.632c-14.358-4.08-14.895-11.741-11.34-16.48
		c14.35-20.071,37.132-20.417,38.133-20.711c-0.57-9.698-30.251-4.815-40.697-4.815c2.002-6.19,9.317-6.319,13.115-10.702
		c-2.889-0.119-5.8,0.097-8.527,1.05c-10.036,3.376-77.381,36.025-78.386,36.564c-7.207,3.96-15.398,5.638-23.503,6.384
		c-6.142,0.896-17.244-24.924-1.385-44.095c2.835-3.506,6.828-6.265,8.105-10.799c-5.14,1.472-9.414,4.794-14.132,7.185
		c7.699-9.613,19.847-12.127,32.538-13.569c32.105-4.003,58.078-16.115,94.996-4.545c14.757-38.286,47.153-29.37,61.884-31.067
		c-1.85-1.872-4.079-3.246-6.33-4.556c-0.292-4.848-1.255-10.117,1.082-14.619c13.163-22.886,37.22-16.059,41.952-15.744
		c-1.602-2.121-3.636-3.852-5.14-6.027c-1.537-3.939-0.097-8.981,3.809-10.983c10.855-7.628,26.428,3.755,34.421,1.634
		c-20.847-25.654-3.003-83.19,21.956-96.728c3.43-2.013,8.213-2.532,9.793-6.752c-28.291,4.383-64.323,8.188-84.381-11.871
		c-32.253,10.486-40.667,5.772-55.078-0.4c-4.155,8.732-12.109,14.954-20.949,18.493c-30.163,11.208-40.096,0.61-53.736-3.214
		c0.249,5.941,2.262,11.784,1.363,17.757c-2.898,20.067-17.542,30.707-34.54,32.852c-1.071-3.408-2.943-6.979-1.807-10.615
		c3.037-12.148,16.599-12.794,13.721-19.651c-8.229-6.374-18.012-3.839-34.583-40.438c-4.339-10.063,0.541-20.711,0.303-31.034
		c-4.328,1.959-8.473,5.183-13.504,4.523c-13.915-0.304-16.317-18.838-24.315-22.291c9.06,37.786-10.148,42.8-18.428,40.427
		c-5.356-1.537-10.778-2.868-16.329-3.333c0.054,1.017,0.151,3.073,0.206,4.101c34.668,1.415,29.182,41.621,37.029,86.199
		c-32.107-10.489-35.98-4.248-46.14-10.626c-6.694-4.709-2.013-7.309,1.634-16.426c-17.606,2.721-51.503,27.175-54.018,11.946
		c-1.028-1.623-0.325-5.67-3.127-4.859c-5.632,4.438-3.578,8.828-29.92,25.158c-11.25,6.779-31.427,20.365-57.751,19.185
		c-21.619,0.666-15.354-4.461-33.263,10.994c-21.419,20.935-16.49,17.936-36.185,42.255c-1.623-11.73,1.407-23.568,6.752-33.988
		c-9.241-4.415-19.878-7.185-26.782-15.279c-11.758-12.942-3.06-28.992-1.547-33.913c-5.227,2.359-10.918,5.064-16.718,2.954
		c2.489-10.193,6.125-20.105,10.929-29.433c8.689,0.498,17.627,1.591,26.121-0.92c31.433-9.453,42.519-25.982,68.691-29.606
		c8.786-1.407,17.183,2.067,25.461,4.372c-1.136-5.486-3.906-11.026-2.218-16.707c5.915-24.007,21.995-34.192,44.365-33.718
		c-17.729-42.236,31.448-39.533,36.737-45.145c-5.271-3.73-18.981-10.676-6.114-21.025c4.869-3.181,10.972-3.333,16.231-5.659
		c-2.316-3.354-6.741-3.625-9.631-6.179c-3.56-3.776-0.887-9.706,3.019-12.044c3.279-2.045,7.282-1.331,10.918-1.028
		c0.552-1.071,1.115-2.132,1.677-3.192c-8.689-8.332-14.825-20.267-14.186-32.528c0.271-6.666,4.014-12.487,7.834-17.714
		c4.09-5.627,10.81-8.126,16.394-11.903c-3.86-4.504-18.357-13.378-13.407-33.047c5.324-17.371,23.721-29.135,26.316-37.494
		c-8.425,0.699-21.89,16.053-37.191,20.105c-10.031,2.781-21.274,5.01-31.132,0.433c-18.081-8.865-26.097-23.058-38.955-23.611
		c1.829,5.345,5.638,10.626,4.242,16.545c-5.144,21.557-22.273,26.906-30.829,26.1c-8.311-0.828-31.882-9.647-33.696-10.431
		c1.299,49.272-36.4,66.102-51.572,55.63c1.125,8.722,4.74,17.465,2.759,26.327c-3.311,11.189-15.344,17.995-26.673,16.653
		c-1.277-6.493-2.521-13.342-0.606-19.845c3.149-10.193,8.667-20.04,17.497-26.36c9.377-5.529-5.308-4.44-16.448-16.372
		c-8.439-9.836-9.212-21.226,0.844-33.988c8.026-9.908,10.554-9.113,18.98-13.342c-2.673-3.333-6.806-6.125-7.109-10.745
		c0.053-13.134,7.291-15.328,12.66-22.745c-1.499-0.627-26.457-7.295-38.63-22.724c-13.49-16.512-12.587-15.969-11.329-30.677
		c-24.231,0.932-46.923-15.667-58.617-29.292c-2.143-1.937-4.566-6.514-7.834-3.874c-13.336,12.495-2.335,43.028-48.705,51.68
		c-0.26,0.379-0.779,1.136-1.039,1.504c1.818,5.335,4.783,10.388,4.988,16.166c1.899,21.65-16.498,34.736-39.042,24.855
		c-0.346,0.574-1.039,1.721-1.385,2.294c8.657,6.914,16.729,14.543,24.369,22.561c8.714,8.963,16.046,31.05,5.465,43.511
		c-5.335,5.172-12.119,9.457-19.748,9.728c-0.011,0.671-0.022,1.991-0.032,2.662c19.59,0.957,31.402,31.513,21.436,49.094
		c32.293,22.123,31.24,31.664,32.874,42.212c8.116,1.396,16.653,3.571,22.313,10.031c-1.266,7.196-1.969,14.944,1.645,21.631
		c-54.519-66.028-86.144-19.552-110.968-58.27c-6.904-10.732-3.523-13.711-18.103-24.866c-1.223,1.504-2.294,3.16-3.766,4.437
		c-12.232-0.321-16.802-14.273-33.047-17.703c0.574,3.43,3.322,7.315,1.006,10.626c-6.602,9.219-17.325,0.753-29.314,0.53
		c1.72,3.29,7.499,6.222,4.653,10.41c-10.101,15.785-43.529-5.613-65.412-3.246c3.398,3.051,7.802,4.577,11.448,7.304
		c16.203,10.196,17.655,28.27,23.665,37.884c4.577,7.531,11.849,12.823,17.303,19.629c4.999,6.341,7.066,14.262,10.55,21.415
		c5.713-2.348,11.643-7.034,18.125-4.502c7.564,4.112,8.559,14.132,15.734,18.709c6.244,5.454,15.301,1.482,21.912,6.189
		c2.64-3.755,5.302-8.516,10.291-9.273c9.765-1.386,11.214,1.683,17.4,16.004c-22.317,9.879-38.864-9.725-59.547,7.585
		c-6.406,5.551-14.11,9.869-18.969,17.01c-1.418,1.796,0.39,3.646,1.428,5.075c2.673-5.335,6.222-11.243,12.357-12.942
		c7.044-0.747,15.041-1.093,21.003,3.419c16.976,12.559,7.403,19.736,4.978,28.437c9.674,0.173,19.867-2.64,29.097,1.45
		c4.913,2.381,9.706,7.055,9.663,12.855c-1.082,6.438-7.477,9.566-11.86,13.591c12.313,4.278,21.621,1.404,36.975,24.52
		c6.46-1.417,13.104-1.591,19.683-1.071c-5.021,4.848-11.589,7.672-18.157,9.728c-4.556,1.526-9.382,0.649-13.959-0.26
		c1.45,11.178-3.571,22.021-10.15,30.753c-4.242,5.984-11.373,8.938-18.212,10.788c-4.577,1.439-9.187-0.433-13.699-1.147
		c6.519,15.815-6.996,34.597-18.861,38.706c-21.954,7.728-25.952,3.261-34.973,1.212c1.264,9.793,17.014,44.218-11.503,64.038
		c-14.588-91.541-9.279-37.596,23.914-127.913c1.298-4.934,3.722-9.771,3.712-14.933c-6.17-6.897-11.715-6.553-14.284-26.5
		c-1.666-13.201-0.184-27.366,7.261-38.706c-3.874-3.09-16.656-10.7-10.215-40.243c1.169-5.951,4.696-10.951,7.228-16.339
		c-1.025-0.05-18.628,1.969-23.6-10.204c-1.428-3.766-1.645-7.834-2.251-11.784c-11.932-2.091-23.739-5.886-25.602-27.225
		c-14.209,1.139-39.511,5.297-30.536-41.087c-21.802,10.901-42.044,9.872-53.704,4.469c-10.505-4.481-12.63-14.761-33.913-13.959
		c-1.948-0.141-3.398,1.19-4.859,2.251c8.085,3.533,12.76,1.141,20.408,21.512c6.482,17.022,0.901,26.875-14.078,35.536
		c25.507,25.596,2.072,45.533-1.32,50.512c0.66,3.127,3.387,5.172,5.183,7.661c12.351,15.758,7.23,45.863-7.012,52.048
		c-1.569,0.779-3.149,1.515-4.718,2.294c6.023,4.874,20.876,9.933,22.745,25.05c0.595,4.188-0.227,8.386-0.606,12.552
		c46.822,9.805,41.854,44.955,46.454,53.293c6.79,1.566,21.597-0.529,44.95,17.021c5.648,4.101,8.678,11.048,14.998,14.316
		c22.859,13.715,13.786,36.41,25.321,77.531c-0.822-1.255-1.634-2.521-2.445-3.776c-4.285,0.151-8.559,0.249-12.823,0.682
		c3.279,4.047,9.306,1.948,13.234,4.978c5.229,2.95,16.572,67.292,23.276,93.535c1.948,9.76,8.267,17.735,13.32,26.067
		c-22.357-11.453-22.364-15.229-75.822-23.362c-0.725-4.35-0.812-8.754-0.422-13.126c39.926,6.234,34.699-45.472-0.595-39.334
		c-12.959,2.535-16.496,17.984-14.067,27.712c1.861,5.41,7.109,8.365,11.632,11.297c-0.011,4.263-0.13,8.538,0.368,12.779
		c-4.923,0.541-9.555-1.374-14.121-2.932c4.924-16.733-0.377-16.091-0.801-24.228c0.239-15.781,9.923-25.316,14.164-32.95
		c-3.679-3.062-7.899-5.735-10.42-9.934c-12.207-20.555,3.943-36.447,4.761-47.601c-6.577,3.421-17.557,18.432-29.617,17.032
		c-10.756,0.277-11.827-14.128-8.332-21.501c9.991-21.772,17.388-26.046,18.06-32.982c-5.4,0.855-10.572,3.073-16.08,3.116
		c-21.352-2.651-16.284-20.729-16.242-28.362c-13.719,3.46-19.098,3.221-22.832-9.944c-1.472-4.696-0.087-9.566,0.173-14.316
		c-8.116,3.311-16.166,7.672-25.148,7.845c-29.305,1.224-26.881-12.142-26.771-20.159c-4.837,2.381-9.631,5.345-15.182,5.529
		c-41.105,1.97-38.269-14.272-53.974-13.872c2.294,4.437,7.856,4.805,11.016,8.245c3.498,6.768,3.652,28.462-17.205,55.327
		c-3.181,4.263-8.072,7.196-10.063,12.314c7.91,0.922,22.688-6.421,23.189,23.936c-0.249,2.337,0.411,5.778-2.272,6.936
		c-7.986,3.474-16.956,4.242-25.581,3.701c-4.328-0.292-8.137-2.5-11.719-4.74c-11.982,8.228-36.058,14.099-51.02,11.827
		c-5.118-0.53-9.934-2.673-15.084-2.976v1.32c22.381,23.482,23.019,35.071,23.773,48.791c0.455,7.044-3.051,13.375-4.804,19.997
		c7.698-1.748,26.918-12.463,36.185,9.025c4.383,9.539,6.488,28.222-8.159,43.554c0.584,1.147,1.158,2.305,1.753,3.463
		c10.962-3.657,22.919-4.978,34.151-1.699c21.618,6.513,20.844,18.769,21.869,23.406c3.203-1.58,6.482-3.019,9.955-3.917
		c-0.206,3.711,0.108,7.921-2.402,10.994c-9.564,11.798-23.911,12.13-39.009,12.022c1.201,5.995,2.738,12.26,0.909,18.309
		c-8.196,26.69-23.771,17.738-33.047,18.19c3.614,4.729,9.825,6.99,12.455,12.552c6.459,13.932-0.005,35.628-21.393,45.599
		c-3.225,1.32-6.471,2.673-9.219,4.869c7.163,0.931,14.998-1.656,21.62,2.099c4.382,2.467,9.219,5.021,11.676,9.641
		c13.918,28.634-1.775,53.464-3.138,56.442c4.285,0.292,6.222-3.647,8.711-6.352c10.821-12.407,28.314-21.25,42.407-11.286
		c7.542,4.274,12.844,11.751,20.928,15.117c1.434-7.754,2.471-25.215,16.675-32.798c7.304-3.073,16.394,0.444,20.354,7.163
		c1.71,1.926,2.64,5.594,5.854,4.967c1.223-5.735,0.108-11.719,1.775-17.378c3.874-14.522,17.941-25.277,32.96-25.44
		c-1.147,6.363-7.163,9.641-11.189,14.067c1.785,2.294,3.625,4.545,5.475,6.796c-2.294,6.081-5.854,11.751-7.055,18.212
		c-0.822,3.463,2.316,6.038,3.852,8.797c-3.614,4.88-7.672,10.02-13.656,12.033c-1.775,1.028-4.675,1.212-5.107,3.625
		c9.647,6.253,12.955,3.096,18.634,17.335c2.348,6.449,5.454,12.617,7.38,19.239c1.266-0.584,2.532-1.158,3.798-1.731
		c-4.032-14.517-2.852-9.717-1.104-26.998c1.656-15.874,4.653-31.727,10.464-46.638c4.199-10.897,6.395-22.464,11.2-33.144
		c21.493-47.163,17.077-38.496,24.585-41.639c-0.465-3.398-1.201-6.795-0.801-10.226c0.47-4.932,14.245-33.648,18.309-38.933
		c16.993-22.98,21.355-23.471,36.033-35.33c11.177-9.127,28.124-10.934,33.036-9.501c15.632,3.991,72.342,31.555,98.059,60.532
		c-0.844,1.515-1.688,3.041-2.478,4.61c1.504,0,3.019-0.011,4.534-0.022c3.171,5.973,5.421,12.433,9.176,18.103
		c4.318,6.698,8.072,13.905,9.804,21.739c-20.118,3.856-30.465-32.706-35.817-52.449c-11.744,2.439-17.463,9.031-31.24-13.916
		c-33.914,28.56-44.803-0.352-57.037-17.411c-1.212,6.07-0.606,12.314-0.855,18.482c-1.385-0.314-2.77-0.606-4.155-0.877
		c0.032,1.98,0.4,4.004,0.065,5.995c-4.534,2.857-10.15,1.731-15.182,1.526c-9.1-1.115-17.952,1.785-26.76,3.603
		c-5.443,1.136-10.161,4.328-13.916,8.354c0.66,0.53,2.002,1.58,2.673,2.099c8.072-6.391,14.548-12.303,36.834,0.703
		c41.497,21.152,54.782,44.251,86.578,66.916c2.662,2.023,5.14,4.253,7.629,6.482c-0.173,3.29-0.519,6.579-0.476,9.89
		c2.337-1.385,4.48-3.138,6.979-4.22c4.967,1.699,9.252,4.902,13.623,7.737c11.741,8.354,24.542,15.095,37.689,20.949
		c23.443,10.475,20.928,3.394,53.52,42.786c0.725-0.476,1.309-1.093,1.742-1.829c-4.361-5.757-10.063-10.485-13.44-16.978
		c-5.01-7.759-7.304-16.816-11.513-24.964c1.147,0.076,2.305,0.173,3.463,0.271c7.228,15.398,13.028,31.911,24.866,44.571
		c-1.288-0.335-2.586-0.628-3.863-0.877c3.322,6.298,8.743,11.319,11.275,18.071c12.265,33.058,7.677,24.53,13.71,39.518
		c-48.22-29.215-40.6-21.691-71.493-49.386c7.488-3.841,16.069-2.153,24.087-3.311c-5.054-9.331-52.166-12.298-55.5-16.318
		c-16.697-18.79-17.351-14.467-27.29-19.369c-3.571-2.9-6.211-6.915-10.388-9.079c-17.529-9.301-19.325-16.094-23.232-23.319
		c-3.636,1.807-6.547,5.042-10.518,6.103c-29.419,3.424-30.833-19.295-47.352-31.489c-4.913-3.614-10.236-7.196-16.491-7.769
		c3.439,8.766,5.452,4.368,5.075,15.679c-11.914-0.06-12.856-17.578-30.904-26.381c1.201,4.988,2.381,10.648-0.162,15.42
		c-8.624,4.469-18.753,0.444-27.766,3.29c-2.954,1.071-7.109,1.266-8.029,4.924c4.491,0.119,8.668-1.807,13.104-2.099
		c26.06,3.923,21.679,38.392,76.839,64.157c-6.081,2.435-12.639,3.484-18.601,6.244c4.253,4.35,11.113,8.3,9.901,15.452
		c-2.337,8.754-10.182,16.437-19.597,16.61c-8.159,0.379-14.457-6.417-22.475-6.839c-6.179-0.216-12.249,1.255-18.352,2.013
		c-6.417,0.768-12.769-0.941-19.175-1.028c0.996,7.077,8.365,10.778,9.934,17.616c4.168,17.848-15.952,13.951-33.014,14.284
		c2.889,10.862,12.38,12.009,12.769,33.133c-1.775,11.026-11.221,18.06-18.525,25.581c-0.963,1.266-3.246,2.294-2.435,4.188
		c3.68,1.442,24.332,5.259,26.608,40.859c4.599,37.211-4.126,48.481-6.352,67.1c0.974-0.108,2.9-0.314,3.863-0.422
		c0.952-5.172,1.764-10.55,4.566-15.095c8.093-12.686,32.252-33.761,48.099-44.798c10.204-6.904,23.189-11.643,35.406-7.477
		c3.452-6.428,5.324-13.829,10.475-19.218c36.92-39.966,54.078-23.053,61.538-25.072c-2.305-3.56-5.735-6.871-5.67-11.438
		c-0.757-8.828,15.267-13.927,35.016-4.08c5.281,2.521,9.349,7.044,14.868,9.122c-10.72-33.567-6.64-36.645-1.223-47.525
		c22.554,15.292,46.321,39.094,94.628,67.089c-48.575,2.803-209.948,11.566-209.546,61.841c1.228,21.641,5.443,63.191,10.767,69.167
		c3.928,2.597,8.787,3.181,12.909,5.421c4.069,7.109,6.351,65.596,20.365,165.083c0,0,8.761,53.193,12.39,87.108
		c2.086,21.762,14.256,86.016,17.432,102.863c4.272,30.561,3.819,35.254,8.321,39.193c0.401-6.107-11.54-68.951-13.732-84.63
		c-16.139-81.508-40.515-307.489-40.632-308.524c115.957,35.516,195.42,23.17,254.387,26.771
		c81.297,3.252,225.966-13.877,264.613-21.501c-0.454,5.854-0.92,11.719-1.721,17.551c0.866,0.519,1.742,1.039,2.63,1.569
		c0.876-6.73,1.374-13.494,2.326-20.202c5.4-1.537,11.784-1.688,15.982-5.843c1.082-3.279,0.714-6.839,1.288-10.215
		c9.725-72.938,37.503-76.043-80.55-107.181c-52.224-11.8-56.626-18.271-183.911-21.642c-10.357-33.959,1.625-35.761,52.903-54.883
		c5.846-2.262,48.847-15.819,56.961-17.595c3.903-1.134,20.286,9.367,23.892,13.364c11.365,10.391,15.755,23.993,37.527,27.539
		c17.985,3.081,10.649,13.924,17.357,17.595c4.852-28.754-13.594-27.297-14.543-39.918c-20.908-11.405-5.651-3.605-23.611-32.279
		c8.906-2.164,17.357-5.865,26.37-7.585c12.482,11.125,10.917-1.557,37.364,21.295c14.106,12.35,42.421,9.277,47.601,7.163
		c-4.61-7.827-1.198-30.01-0.097-35.395c4.534,5.822,5.616,13.396,9.49,19.618c0.995-0.292,2.987-0.866,3.982-1.158
		c-5.257-16.059-3.168-18.709,1.082-26.987c-4.09-3.3-7.358-7.791-7.088-13.288c17.904,15.654,24.271,44.628,20.3,61.462
		c6.59,1.731,13.84,1.255,19.791,5.075c18.468,8.818,16.103,35.433,16.296,43.435c11.534,1.59,40.493-5.873,49.376,20.841
		c25.207,3.713,26.822,16.079,31.738,18.655c7.791-0.573,16.004-2.121,23.525,0.92c19.946,6.656,55.494,36.939,56.799,57.946
		c0.887,0.076,2.662,0.216,3.549,0.281c0.496-17.691-7.641-25.195-5.248-53.617c2.041-23.614,1.07-19.061,11.026-33.556
		c-12.617-9.847-18.417-25.667-21.144-40.924c-1.104-5.681,0.736-11.211,2.078-16.653c-2.605-0.53-21.749-1.451-28.978-22.659
		c-2.878-8.505-7.488-17.162-5.389-26.403c0.422-5.421,5.053-8.743,8.668-12.173c-0.454-0.725-1.353-2.164-1.807-2.878
		c-3.506,2.283-6.525,5.724-10.691,6.741c-15.431,0.314-30.926-13.288-30.201-29.173c-15.627,7.694-20.097,4.281-31.316,4.22
		c-5.064-0.087-10.128,0.714-15.182,0.281c-4.61-0.4-8.365-3.722-12.92-4.22c-0.483-0.008-86.84,4.645-87.768,4.815
		c29.947-15.62,41.653-35.217,47.017-61.084c33.217,12.876,58.209-42.879,74.199-75.919c8.626,36.486,53.42,23.316,71.331-9.273
		c18.647,21.529,34.443,20.758,51.626,13.829c4.656,16.106,14.493,19.751,28.362,15.301c7.525,20.088,19.471,22.755,41.098,28.156
		c0.024,27.987,31.372,67.915,42.32,79.934c-36.999-20.108-71.14-20.597-97.647,11.319c-4.875-14.103-12.395-22.023-25.765-17.346
		c-7.65-7.282-18.709-9.771-29.011-9.263c-2.867-0.011-6.125,0.941-8.419-1.309c-4.923-4.188-11.946-5.605-18.049-3.495
		c-7.08,3.549-6.588,8.537-19.066,16.523c-1.461-3.279-2.348-7.196-5.454-9.349c-12.709-8.92-27.678,2.015-36.391,14.586
		c-8.148-9.501-20.776-12.963-32.766-14.262c-27.779-4.749-51.901,10.541-59.526,12.487c34.851-22.107,40.477-29.355,90.625-43.305
		c19.281-6.533,78.071-17.425,144.621-4.512c13.807,2.77,26.522,9.1,39.842,13.385c-33.605-25.735-146.423-26.202-184.203-11.286
		c-60.507,16.771-67.358,29.728-93.319,44.301c-5.367,3.149-11.384,5.346-15.972,9.674c4.523-0.985,8.429-3.939,13.126-4.263
		c16.47-1.534,25.36-14.325,57.275-14.413c33.577,3.43,34.493,11.036,39.139,17.876c5.086-2.64,7.282-8.267,11.394-11.979
		c7.164-6.599,17.359-12.194,24.434-5.508c2.986,3.582,2.51,8.592,3.127,12.931c21.595-10.89,19.763-21.805,29.963-20.635
		c5.378-0.476,8.96,3.82,11.665,7.813c9.198-3.549,19.726-2.51,28.686,1.266c4.469,1.861,5.53,7.055,7.629,10.897
		c1.558-2.132,2.987-4.361,4.458-6.557c14.488-0.09,15.516,11.335,20.289,20.798c0.476,0.011,1.428,0.032,1.905,0.043
		c2.824-3.116,4.577-7.098,7.715-9.966c24.171-22.831,54.133-22.168,83.234-6.211c4.469,2.197,8.711,5.432,13.905,5.551
		C1262.177,895.421,1220.347,854.208,1220.731,817.788z M841.428,804.219c-19.817,30.278-58.394-17.071-11.816-26.003
		C841.294,776.802,848.62,791.313,841.428,804.219z M839.686,776.236c-3.16-0.682-6.19-1.915-9.414-2.316
		c4.718-5.584,9.631-11.005,14.229-16.686c-0.758,5.086-0.487,10.302,1.493,15.106C843.949,773.736,841.947,775.229,839.686,776.236
		z M799.605,778.714c-0.476,4.253-3.246,7.694-5.8,10.951c-12.528-16.863-26.082-19.887-26.468-44.452
		c-33.643,2.297-11.722-29.686-11.546-31.478c-4.924-0.552-10.193-0.476-14.597-3.041c-16.129-9.833-8.42-24.028-7.499-28.383
		c-5.605,2.667-20.522,19.167-30.742,12.487c-0.433-5.713,4.923-8.841,6.557-13.775c-22.651,5.706-42.84,39.123-47.049,44.052
		c-0.82-46.818,63.167-58.33,98.491-35.828c1.125-0.292,2.24-0.671,3.333-1.104c-2.572-13.125,9.863-28.524,22.302-34.919
		c4.772-2.608,10.107-0.152,14.478,2.088c8.949-5.01,19.456-6.298,29.541-5.291c3.755,0.552,7.088,2.521,10.615,3.82
		c2.503-7.259,2.816-32.236,21.642-44.604c3.116-1.612,6.741-1.645,10.096-2.532c2.52-16.631,31.707-27.911,48.11-24.693
		c0.498-0.638,1.493-1.926,2.002-2.565c-11.232-6.676-25.959-3.722-36.336-12.141c-14.915-11.282-11.064-14.997-10.875-20.971
		c-7.264,5.145-23.414,18.956-33.902,9.598c-7.371-8.553,0.075-12.048,1.18-17.01c-5.237,1.699-8.191,6.731-12.487,9.858
		c-12.312,10.474-36.195,20.587-44.647,11.189c-2.716-1.991-2.402-6.428-5.551-7.737c-1.328,1.459-32.894,49.766-54.126,33.815
		c-3.419-2.651-3.484-7.315-5.01-11.016c-5.616,5.919-7.953,14.067-8.668,22.01c-6.282,57.331-31.851,62.391-48.055,97.409
		c-0.011-5.887,0.011-11.773,0.011-17.649c-0.541-0.033-1.645-0.076-2.186-0.097c0.344,12.172-1.405,50.638-6.666,76.168
		c-4.177,6.179-9.533,11.568-12.779,18.385c0.454-11.243-1.158-22.54,0.812-33.674c0.265-4.747,3.714-51.876,3.593-68.258
		c5.064,2.608,10.172,6.006,16.134,5.638c19.624,0.3,27.002-23.585,20.484-38.003c25.372-10.349,21.446-34.925,16.199-40.87
		c0.509-1.407,1.634-2.738,1.418-4.296c-3.285-6.03-10.297-9.991,0.022-29.368c1.775-3.463,4.61-6.265,6.135-9.847
		c-4.458-1.937-9.706-2.402-13.137-6.233c24.235-31.135,58.642-14.198,64.157-13.937c2.186-5.529,1.699-11.687,3.722-17.216
		c13.486-12.748,48.902-22.766,53.195-19.521c6.86,4.891,12.595,11.2,17.66,17.887c0.725-0.249,2.186-0.747,2.922-0.995
		c-0.098-26.311,69.425-63.721,111.942-46.638c5.741,23.519,11.922,127.91,2.565,132.545c-6.157,3.203-11.946,7.618-19.001,8.603
		c-17.286,2.489-16.399-2.021-26.533-7.326c-1.234,3.627-5.371,28.452-25.126,23.925c-10.927-3.753-12.235-12.08-18.937-12.292
		c4.185,17.949,0.867,33.425-15.192,42.461c-5.41,3.357-22.417-2.749-31.619-1.915c0.649,3.008,3.906,3.398,6.255,4.512
		c27.007,11.118,14.486,52.89-21.988,50.728c0.054,1.201,0.151,2.424,0.238,3.647c-3.593,2.078-7.412,4.501-9.003,8.548
		c-7.19,18.835,4.236,24.55,11.362,30.85C802.951,754.729,801.592,756.693,799.605,778.714z M728.339,811.111
		c-11.795,4.794-21.761,13.331-29.206,23.568c-12.852-19.161-35.155-15.911-45.155-8.332c3.041-5.832-1.374-12.833-7.044-14.922
		c-3.744-0.909-7.607-1.082-11.427-1.342c12.475-27.487,1.744-33.361,25.267-56.777c32.742-5.991,98.538,30.205,109.572,32.939
		c-6.939-7.693-83.217-40.014-110.914-35.601c1.537-8.613,2.164-17.779,6.969-25.353c12.834-20.093,27.662-33.468,34.713-37.613
		c-0.563,3.03-2.662,6.547-0.563,9.425c5.851,8.026,19.594-0.677,27.388-6.936c-0.26,5.378-0.411,11.264,2.673,15.972
		c4.545,7.012,12.736,11.319,21.101,11.21c-5.822,6.395-8.148,15.766-5.605,24.044c3.831,5.746,11.135,8.375,17.822,8.43
		c-0.501,16.349,12.759,26.595,29.097,45.231C761.102,795.727,744.073,805.327,728.339,811.111z M785.992,798.148
		c-0.914,1.019-100.307,101.752-128.638,121.15c-2.317-7.493-1.515-9.62,3.928-62.544c0.487-10.572,0.022-21.187,0.974-31.738
		c22.409-4.541,27.368,3.248,35.979,15.344c4.685-2.402,6.557-7.683,10.139-11.275c11.026-12.888,27.929-17.692,43.164-23.654
		C762.5,800.929,774.338,799.587,785.992,798.148z M474.092,828.014c-3.07-14.242,27.422-35.914,39.107-9.198
		c-2.207,3.647-4.956,7.055-6.341,11.124c-1.255,4.891,0.054,11.254-5.064,14.284C494.218,847.964,477.532,843.751,474.092,828.014z
		 M498.039,849.277c-3.96,0.541-7.964,0.801-11.881,1.591c-1.656-1.904-3.203-3.896-4.621-5.973
		C486.753,847.351,492.412,848.324,498.039,849.277z M507.399,844.451c3.279,6.319,9.306,10.258,15.409,13.526
		c0.357,2.262,1.331,4.328,2.207,6.438c-2.186-0.498-4.891-0.379-6.363-2.37c-9.942-12.023-9.161-9.618-19.618-13.104
		C502.064,847.924,504.932,846.485,507.399,844.451z M621.256,941.081c10.292,9.104-11.609,78.688-14.922,105.016
		c-4.069-5.811-8.256-11.654-10.972-18.244c-14.188-47.316-65.137-139.038-71.309-147.521c-2.684-3.766-1.894-8.711-3.268-12.953
		C533.328,867.749,615.353,935.093,621.256,941.081z M537.405,819.443c16.281,9.714,13.385,42.038-12.347,35.839
		C495.43,841.875,515.461,807.203,537.405,819.443z M550.974,844.288c3.939-17.871-13.991-39.199-34.648-27.929
		c-10.119-20.927-32.462-13.567-40.373-4.285c-5.984-8.862-10.388-18.698-16.837-27.258c4.188-0.476,8.386-1.872,12.628-1.288
		c2.997,0.768,6.428,3.56,5.497,7.023c-1.039,4.75-5.562,7.694-6.741,12.411c8.148-3.149,14.121-10.788,23.038-12.119
		c10.539-1.234,21.144,4.015,27.961,11.892c16.186-9.785,45.458,12.661,48.629,31.078c0.693,1.742,0.541,5.757,3.409,4.437
		c4.209-6.188,5.981-21.378,27.074-36.91c6.533-4.864,26.147-10.711,36.845-9.263c-3.742,16.769-4.534,13.4-9.111,21.555
		c3.452,0.13,6.915-0.151,10.366-0.249c-0.034,1.911-10.485,113.392-11.243,117.168c-4.664-1.889-71.843-53.552-88.103-71.656
		C544.309,855.087,549.524,850.662,550.974,844.288z M677.091,687.397c-6.839,5.486-11.102,13.342-13.991,21.479
		c3.338-24.41,32.415-48.78,41.108-69.221c10.971-19.762,10.61-46.218,15.073-56.896c13.314,24.948,44.007-1.397,60.326-24.639
		c14.282,18.397,37.561,4.391,56.084-9.695c1.355,12.884,10.708,21.251,35.601,4.48c1.558,4.74,4.079,9.209,7.888,12.509
		c17.428,15.062,19.995,9.344,32.268,13.483c-26.856,1.815-39.367,21.246-42.147,24.661c-4.152,2.09-23.274,4.517-30.277,44.917
		c-7.174-2.391-14.835-2.207-22.28-1.699c-4.696,0.444-8.916,2.629-13.245,4.328c-5.176,2.722-14.366-13.979-36.856,16.621
		c-3.463,4.675-5.086,10.291-6.915,15.734c-13.492-6.665-42.77-12.625-70.108-3.235c33.402-22.782,66.805-40.505,69.957-44.723
		C752.982,638.051,697.344,670.915,677.091,687.397z M640.777,630.62c-1.85-4.133-2.727-8.603-4.307-12.823
		c2.175-1.115,4.361-2.207,6.525-3.344c-0.379,3.56-0.855,7.109-1.158,10.68c-0.877-2.024-1.439-4.393-3.69-5.313
		C638.634,623.51,640.095,626.962,640.777,630.62z M646.317,629.397c0.574,2.857-2.056,4.588-3.549,6.622
		c3.452-13.87,0.496-20.324,4.328-26.771C647.691,615.99,645.841,622.645,646.317,629.397z M653.188,631.29
		c7.94-3.196,12.563,2.043,16.935,3.582c2.943,1.212,6.276,1.255,9.144,2.694c10.689,15.526-4.592,46.482-29,28.827
		C636.924,658.11,639.797,636.95,653.188,631.29z M658.999,626.735c-3.517,0.779-6.936,1.904-10.442,2.738
		c0.649-14.403,0.617-29.79,8.365-42.515C662.198,608.558,650.498,603.213,658.999,626.735z M667.45,594.37
		c2.753-3.281,17.433-5.146,28.967,3.354c6.559,5.186,6.985,29.435-12.444,35.503C666.568,637.056,649.032,615.478,667.45,594.37z
		 M659.897,599.38c0.292-3.387,0.422-6.785,0.53-10.172c2.078,0.617,4.155,1.234,6.265,1.829
		C664.28,593.688,662.029,596.491,659.897,599.38z M683.865,588.732c4.253-4.318,7.25-9.587,9.847-15.008
		c-0.101,16.713-0.237,7.614,5.183,20.051C693.896,592.043,689.167,589.5,683.865,588.732z M689.709,551.389
		c0.909-0.736,1.829-1.472,2.759-2.186c3.17,2.478,6.72,4.437,10.68,5.313c-4.134,5.8-6.612,12.477-9.165,19.066
		C696.537,559.014,694.431,558.184,689.709,551.389z M680.316,586.471c-5.032,1.244-10.659,2.857-15.56,0.303
		c-19.916-8.584-16.961-27.767-11.221-34.529c2.99-3.725,19.328-6.593,30.396-0.541C698.666,560.828,689.71,582.479,680.316,586.471
		z M654.606,585.994c-0.79,1.428-1.569,2.868-2.337,4.318c-1.493-4.058-3.43-7.932-5.107-11.914
		C649.78,580.79,652.247,583.343,654.606,585.994z M627.813,614.258c-9.1-0.011-17.519-7.315-19.001-16.21
		c-0.422-9.75,5.746-19.737,15.182-22.81c6.904-3.149,13.299,2.207,18.731,5.832C654.114,591.117,647.611,617.67,627.813,614.258z
		 M629.545,551.952c5.746,4.447,6.557,13.126,2.651,19.045c-2.829,0.943-15.288-0.467-23.124,12.541
		C576.99,571.249,600.085,532.062,629.545,551.952z M635.81,572.706c1.362-4.446,10.336-21.893-16.794-28.892
		c-24.233-7.309-45.788,31.104-11.87,42.915c-1.591,5.043-2.608,10.291-2.251,15.604c-3.96-1.493-8.04-2.651-12.13-3.701
		c1.437-16.407-3.181-24.75-19.954-30.082c-1.785-10.886-10.41-19.597-20.668-23.027c8.501-21.346,24.349-25.544,28.351-27.409
		c-5.786-8.478-9.229-2.78-7.596-27.939c27.164,13.493,52.675,11.646,66.754,42.753c1.731,3.603,0.39,7.758,1.731,11.47
		c3.798,10.832,1.753,22.486,3.538,33.653C641.978,576.104,638.883,574.427,635.81,572.706z M570.235,568.032
		c-7.499-0.108-14.24,3.289-20.246,7.445c-3.82-8.246-1.201-17.703,0.53-26.176C559.912,551.357,567.638,558.802,570.235,568.032z
		 M586.283,581.212c3.135,4.648,6.064,20.294-4.328,30.526c-17.199,13.612-43.928-6.642-33.058-27.82
		C553.063,573.15,570.905,563.92,586.283,581.212z M567.249,619.474c9.07-1.254,13.066,1.524,24.109-15.333
		c5.14,1.158,10.204,2.694,15.376,3.787c-3.257-5.086-10.291-3.701-14.987-6.612c6.049,0.476,13.277,1.721,16.924,7.131
		c9.742,12.806,21.444,7.571,25.256,10.529c2.716,5.237,3.993,11.081,6.071,16.578c2.045,4.285-1.926,8.094-2.402,12.26
		c-0.476,5.897,0.941,12.206,4.772,16.837c2.62,3.831,3.075,1,2.629,20.062c-2.61-8.642-8.531-25.183-14.608-31.813
		c-27.403-30.214-45.129-26.501-66.332-26.717C565.28,624.03,566.372,621.801,567.249,619.474z M764.048,511.179
		c3.928-7.099,8.062-14.911,15.669-18.655c9.468-5.616,21.642-4.675,31.337-0.108C805.002,494.215,785.34,495.626,764.048,511.179z
		 M804.377,766.995c0.855-5.67,1.125-11.394,0.887-17.108c0.757,0.4,1.537,0.801,2.327,1.223
		C807.461,756.553,806.271,761.898,804.377,766.995z M792.301,735.582c-2.088-4.123-0.682-8.83,0.335-13.028
		c4.084-16.605,37.364-10.394,36.347,10.886c-0.584,7.163-4.794,14.727-12.087,16.816c-2.186,1.439-3.062-1.688-4.361-2.857
		C804.161,748.242,795.818,743.124,792.301,735.582z M865.353,743.016c11.822-1.763,23.525,7.736,22.68,16.177
		c-0.606,8.527-6.785,16.34-14.814,19.121C839.625,782.962,841.487,745.931,865.353,743.016z M901.397,801.34
		c-4.806,8.485-22.834,15.76-31.651-2.543c-7.81-14.387,8.411-15.533,17.119-27.128C904.324,774.383,909.598,790.175,901.397,801.34
		z M949.517,735.171c-18.776-1.529-43.925,11.55-49.581,37.732c-3.192-2.381-6.893-3.885-10.799-4.577
		c1.493-5.562,3.798-12.054,0.303-17.324c-5.986-9.44-15.407-14.44-32.138-10.161c33.467-42.359,39.182-52.03,51.994-62.999
		c5.324,3.657,7.596,10.356,7.347,16.599c-0.379,5.724-4.318,10.41-4.913,16.091c4.956,0.206,4.491-5.551,7.769-7.813
		c7.704-6.687,17.551-10.128,27.333-12.476C928.494,711.051,944.351,727.15,949.517,735.171z M951.389,678.74
		c3.469-0.345,6.314-3.218,20.733,9.89C955.262,684.933,968.3,683.804,951.389,678.74z M985.172,650.79
		c14.745,10.129,27.747,41.197,33.62,47.071c-1.551-8.186-14.634-26.93-18.46-33.999c-4.112-7.282-10.356-12.92-17.205-17.562
		c6.44-2.634,68.551-32.388,78.191-37.354c0.314,2.153-0.444,4.956,1.721,6.363c11.546,0.985,23.038-2.402,34.583-0.498
		c-7.837,3.674-22.47,6.005-34.248,22.767c-6.167,8.984,2.431,14.194,6.958,18.146c-8.414,0.487-22.274,0.377-27.994,15.982
		c-15.327,2.232-10.458,21.163-13.158,38.847c-11.557-8.613-25.516-13.017-39.507-15.701c-11.957-2.186-18.796-13.429-29.433-18.233
		c-6.503-3.722-16.036,0.552-18.082,7.575c6.247-0.162,13.544-5.463,17.075,2.067c-15.694,0.895-27.466,3.64-39.972,13.028
		c4.411-15.007-5.33-30.122-20.906-23.438c5.045-24.497,26.784-22.068,57.242-25.624C981.701,649.812,975.28,644.357,985.172,650.79
		z M965.262,598.319c-13.429,11.957-14.078,33.674-5.226,48.51c-11.795,1.515-23.871,1.136-35.46,4.079
		C961.04,601.585,949.232,606.277,965.262,598.319z M930.159,374.62c16.933-4.282,19.986-17.776,18.331-35.222
		c10.84,18.474,22.713,19.124,29.952,13.407c-5.931,20.643,0.346,28.392,7.802,42.515c5.832,11.005,15.052,19.965,25.97,25.884
		c-12.537,7.99-17.113,15.122-11.687,28.351c-6.135,0.065-12.098-1.385-17.952-3.052c-1.699-0.887-3.03,1.688-1.85,2.878
		c7.179,11.765,9.392,13.531,11.611,39.269c-0.011,7.239,1.277,14.457,0.866,21.696c-0.249,3.019-3.311,4.491-5.162,6.503
		c-19.792,19.058-5.629,31.456-11.178,46.302c-7.32,13.239-16.505,19.324-17.216,25.678c3.354-1.894,5.648-5.053,7.932-8.051
		c19.051-24.247,26.434-39.398,29.054-70.379c-2.385-35.17-0.112-38.682-9.695-58.487c23.238,4.977,57.269-8.659,54.202-47.503
		c8.992,2.099,17.66,6.557,27.15,5.421c16.826-1.526,34.648-8.126,44.485-22.627c26.599,12.401,45.403,0.313,52.265,0.39
		c26.777,21.64,58.668,12.927,73.246,12.422c-14.444,11.921-11.098,6.589-22.042,28.058c-9.395,19.037-13.028,50.559-4.166,67.176
		c-7.109-2.456-14.662-4.253-22.215-3.17c-14.812,3.311-12.266,13.876-12.542,18.114c-20.614-0.973-41.688,12.898-37.202,35.871
		c-28.604-1.117-44.431,10.366-54.927,29.757c-35.912-8.412-46.991-1.311-91.523,5.713c-11.546,1.32-23.167,4.285-33.058,10.572
		c-0.859,2.493-35.66,54.802-36.347,55.803c-1.699,3.127-5.291,3.874-8.321,5.118c1.162-1.475,24.076-31.183,25.873-35.731
		c-3.386,2.733-4.309,4.357-27.074,34.064c-3.747,5.207-15.374,6.816-19.034,19.24c-4.932,16.655-86.277,103.895-87.184,104.897
		c1.071-6.785,2.867-13.407,4.891-19.954c4.239-1.647,21.618-5.295,18.85-29.66c-3.528-8.137-11.546-13.58-19.694-16.448
		c23.858-9.969,37.126-32.313,15.539-52.719c27,5.457,41.088-16.793,38.165-38.154c23.257,19.834,39.194-0.47,40.546-13.753
		c6.612,4.206,19.924,12.886,45.599-3.603c10.963-13.758,11.273-53.911,11.026-71.353c0.216-2.911-1.688-5.281-2.521-7.921
		c-6.497-19.492-1.256-20.281-5.205-53.725c1.926,0.476,3.852,0.985,5.789,1.493c1.937,8.57-1.385,17.919,2.51,26.024
		c0.736-8.354,0.097-16.751,0.4-25.126c2.932,1.244,5.887,2.5,8.97,3.376c0.152-4.296-5.01-5.259-7.856-7.282
		c0.211-62.644-8.959-74.12-12.022-96.933c-0.563-3.798-0.79-7.802-2.792-11.189c0.011,10.042,1.872,19.997,4.545,29.649
		c2.478,9.014,3.311,18.352,5.562,27.409c-0.855-0.076-1.71-0.141-2.554-0.195c-1.309,4.469-4.036,8.278-7.023,11.784
		C945.65,398.379,945.824,389.212,930.159,374.62z M992.66,517.672c-1.418,13.234-4.826,26.522-11.243,38.252
		C979.755,534.217,978.744,529.801,992.66,517.672z M957.146,517.974c5.751,18.766,3.855,32.369,1.493,52.817
		C958.646,570.342,957.851,526.965,957.146,517.974z M954.83,460.224c1.634-11.946,4.253-23.806,6.99-35.546
		c0.563,13.548,1.991,27.095,1.569,40.676C960.619,463.676,956.508,462.918,954.83,460.224z M934.26,381.632
		c13.721,15.428,9.969,42.338,17.097,51.031c2.738-2.792,4.859-6.092,7.315-9.111c-2.359,11.99-5.367,23.849-7.034,35.969
		c-0.801-0.303-1.602-0.595-2.381-0.877C943.599,425.46,945.906,405.902,934.26,381.632z M735.091,485.653
		c2.976-2.597,7.12-1.915,10.723-1.602c46.29,4.779,89.009-31.549,97.518-41.898c5.631,18.43,33.194-1.597,52.514-8.224
		c-2.294,6.939-10.502,16.552,22.432,19.196c14.846,0.79,28.827,6.731,41.768,13.656c-12.152-4.231-24.812-8.386-37.862-7.52
		c-32.156,0.615-77.975,19.664-88.947,48.705c-7.088-7.704-14.619-15.517-24.39-19.737c0.206-0.931,0.422-1.85,0.649-2.77
		c-5.486,2.846-11.416-0.011-17.173,0.606c-9.219,0.357-18.579,4.804-23.741,12.628c-2.24,4.004-7.282,4.177-10.615,6.828
		c2.099-0.271,4.188-0.693,6.276-1.136c-8.124,18.032-5.732,11.425-7.066,24.498c-26.903-8.313-38.733-1.44-45.437-0.822
		c-16.021,9.36-18.385,15.595-24.001,22.161c-1.818-1.125-3.647-2.207-5.465-3.279C685.015,542.188,708.168,506.666,735.091,485.653
		z M659.691,457.627c-7.828,33.62,19.846,38.985,29.649,44.484c-3.982,10.475-6.655,21.728-4.967,32.982
		c1.06,4.35-2.813,7.661-4.859,11.059c-7.64-1.482-15.669-1.969-23.135,0.595c-7.369-24.51-9.087-62.646-7.953-89.11
		C652.182,457.778,655.937,457.854,659.691,457.627z M546.711,282.881c-2.922-21.902-21.96-32.294-30.98-40.297
		c0.041-1.878,9.985-29.203-16.837-49.743c3.585-2.398,24.046-11.875,17.432-35.763c-5.075-18.411-9.202-20.135-26.814-37.711
		c24.732,5.105,40.521-20.146,29.454-44.939c39.828-12.196,34.422-29.741,46.627-53.185c16.503,17.258,37.031,36.133,61.517,34.995
		c-0.238,4.859-0.768,10.128,1.775,14.532c11.335,19.793,30.388,33.369,45.491,37.007c-8.913,9.992-13.292,19.095-5.8,30.125
		c-9.924,4.758-21.217,19.444-22.442,27.377c-3.766,21.566,15.988,30.684,22.724,35.059c-36.25,41.285-9.518,59.701-5.129,73.311
		c-10.107,2.402-19.023,8.722-25.483,16.751c-5.735,6.603-6.325,1.062-19.315,8.57c-2.121-9.522-9.901-17.313-19.391-19.499
		c-1.472-0.725-4.058-0.249-4.426-2.283c-5.562-16.415-9.035-33.447-12.238-50.458c-1.959-11.6-3.679-23.265-4.22-35.027
		c-5.969,3.987,6.446,61.475,14.164,86.837c-9.923,0.454-19.845,5.443-24.758,14.327
		C562.206,287.306,554.794,283.66,546.711,282.881z M584.789,364.448c-12.06-2.965-8.743-7.472-18.655-12.736
		c11.964-3.828,24.576-8.507,30.645,0.876C591.207,354.239,587.458,353.528,584.789,364.448z M591.282,357.176
		c2.521,3.192,4.988,6.449,7.077,9.955c-3.03-0.638-6.406-0.541-9.057-2.283C586.618,362.457,590.081,359.449,591.282,357.176z
		 M580.97,367.099c4.913,1.363,9.977,2.11,14.965,3.181c7.013,7.652,12.067,11.973,18.774,31.922
		c-3.279-5.291-6.244-10.788-9.836-15.874c-3.538,3.387-6.579,7.802-11.611,9.035c-9.759,3.756-30.719,0.979-33.707-25.364
		c-19.818,7.374-32.524,4.239-46.627-6.785c13.816-12.114,18.795-20.37,30.223-18.038c4.577,3.062,5.627,9.079,9.62,12.747
		c3.062-1.829,6.168-3.603,9.284-5.324C574.45,359.758,573.697,365.017,580.97,367.099z M599.755,370.681
		c4.166,0.887,7.575,3.495,8.743,7.704C605.068,376.47,602.135,373.787,599.755,370.681z M594.301,357.003
		c2.976-0.249,6.438,0.487,8.57-2.142c-3.095-3.506-5.876-7.629-10.345-9.49c-13.266-7.218-0.979,4.137-21.155-23.99
		c10.017,7.399,12.146,9.228,28.946,9.057c5.259,6.179,9.76,13.202,12.098,21.025c0.162,5.692-1.731,11.362-0.747,17.097
		c1.937,6.969,8.689,11.373,10.323,18.46c4.382,13.851,7.704,27.994,11.07,42.125C599.53,346.563,615.003,385.505,594.301,357.003z
		 M570.906,315.116c-3.322-3.755-2.673-9.057-2.543-13.678c2.303-23.748,42.836-26.818,47.265-1.061
		C619.012,330.653,586.422,333.481,570.906,315.116z M615.997,338.446c-3.344-3.668-6.255-7.737-8.873-11.935
		C610.348,330.243,614.828,333.392,615.997,338.446z M623.95,344.051c38.661-1.269,40.465,26.12,26.976,35.72
		c-4.188,3.008-9.512,3.279-14.457,3.636C619.357,384.336,604.642,360.494,623.95,344.051z M616.462,346.778
		c-4.112-5.822-8.397-11.535-13.05-16.945c0.454-0.346,1.353-1.061,1.807-1.407c4.047,4.924,7.304,10.442,11.459,15.29
		c0.303-0.033,0.909-0.097,1.212-0.13c0.79-2.348,0.119-4.869,0.184-7.282c3.549,0.768,7.174,1.06,10.799,1.255
		c0,1.039,0,2.088,0.011,3.127C623.701,338.272,619.968,343.878,616.462,346.778z M611.528,325.407
		c0.985-2.781,3.181-4.913,4.501-7.531c2.575-4.534,2.175-9.944,3.614-14.825c10.682-11.884,36.119-3.651,30.601,16.935
		C642.86,337.652,615.631,337.31,611.528,325.407z M450.849,334.323c-7.531-3.56-16.599,0.335-21.371,6.655
		c-4.848-1.699-9.988-1.309-15.019-1.71c-11.024-3.654-12.52-32.249-37.148-18.19c-2.359-7.823-6.125-15.355-11.795-21.306
		c-21.807-23.398-15.291-19.009-22.432-35.882c-6.876-13.865-17.605-19.696-20.971-22.226c21.19,2.95,42.883,16.697,57.751,3.42
		c2.673-2.456,2.348-6.244,1.699-9.457c22.333,7.273,26.675-4.814,25.721-10.962c7.942,5.151,14.143,13.256,23.644,15.766
		c3.3,1.526,6.579-0.368,9.62-1.58c10.352,9.321,10.775,26.557,27.171,34.713c30.981,16.079,65.346-12.029,114.755,69.816
		c-4.393,0.942-8.592,2.716-13.007,3.484c-10.322-4.354-14.367-12.177-50.252-16.459c-1.428-0.444-2.554,0.736-3.69,1.353
		c34.555,6.839,34.658,6.438,50.826,16.437c-4.166,1.515-8.451,2.922-12.011,5.67c-2.705-4.664-5.097-10.853-10.951-12.152
		c-16.773-1.242-21.695,12.796-31.792,18.872c-5.709,3.778-18.403,4.746-26.002,19.813c-4.706-16.008-15.044-17.203-22.821-28.426
		C459.733,345.577,457.093,338.348,450.849,334.323z M486.32,449.489c-1.97-2.623-12.648-20.095-32.408-21.782
		c10.672-10.479,12.5-17.992-0.173-26.857c-8.754-5.227-19.283-3.473-28.935-3.106c1.247-2.775,12.746-18.668-11.081-30.526
		c-5.097-2.738-11.037-2.045-16.588-2.078c30.787-22.254,40.522,3.366,62.999-10.594c15.98,13.994,18.589,16.465,20.04,20.83
		c1.472,3.647,1.266,8.213,4.707,10.778c10.161-16.189,10.886-16.168,22.659-20.7c1.904-1.104,3.538,0.768,5.108,1.601
		c22.519,14.644,30.602,9.347,44.182,8.105c6.833,27.295,34.867,29.71,47.839,17.389c39.984,56.674,35.259,86.695,39.269,139.329
		c0.292,2.824-0.119,6.676,2.997,8.094c0.753-5.753-2.178-62.632-6.254-80.745c-1.926-13.654-14.755-37.441-21.231-49.527
		c-3.181-9.468-6.19-19.056-10.648-28.037c8.926,7.503,20.069,52.729,26.717,53.617c1.041-9.633-8.847-42.051-11.795-51.074
		c4.296,2.272,9.068,3.257,13.926,3.203c1.013,7.504-1.206,18.492,11.232,31.51c4.383,3.776-0.445,9.86-5.486,24.455
		c-1.19-9.587-1.742-19.304-4.123-28.708c-3.923-17.086-1.794-23.596-5.638-25.819c0.709,15.477,8.165,59.348,9.349,62.858
		c2.77-3.387,2.684-8.018,4.328-11.935c2.067-6.666,6.135-12.931,6.449-20.019c-4.557-6.561-13.623-10.456-12.963-32.344
		c22.069-4.142,23.879-24.996,17.584-34.042c-4.978-8.689-15.679-10.745-24.726-12.401c0.346-1.407,0.628-2.824,1.18-4.166
		c1.773-0.954,21.2-5.881,19.25-24.455c0.216-8.732-7.542-14.597-14.673-17.952c6.856-13.114,26.791-18.404,30.244-20.008
		c-4.848-7.023-10.604-13.721-12.953-22.129c10.182-0.26,20.635-5.032,25.548-14.316c5.594-7.672,2.554-17.454,1.677-26.057
		c31.813,0.978,51.535-30.616,50.36-56.442c10.031,2.673,19.25,8.375,29.844,8.776c14.062,0.264,28.34-8.589,34.096-29.346
		c1.374-4.101-0.671-8.159-1.569-12.119c15.521,10.242,24.619,24.108,44.301,25.245c26.754-1.084,38.344-13.128,47.709-18.698
		c-10.4,11.794-27.713,26.599-18.947,50.133c1.731,5.01,6.125,8.321,9.046,12.574c-3.798,2.738-8.213,4.74-11.21,8.462
		c-13.401,16.067-14.857,30.148,1.223,52.925c-7.791-0.065-14.338,7.012-14.392,14.608c0.887,3.257,3.657,5.454,5.811,7.91
		c-7.304,1.331-14.197,6.503-16.015,13.905c-0.725,5.724,4.198,9.696,7.542,13.591c-32.152,3.474-42.056,23.157-34.746,41.13
		c-38.701,7.338-44.746,35.459-42.071,49.051c-48.278-12.857-74.005,40.618-115.675,27.853
		c-16.061,25.613-15.09,48.283-13.212,68.409c0.325,19.607,3.16,39.128,7.499,58.238c-3.333,3.798-6.774,7.856-7.521,13.05
		c0.703-5.421,0.346-10.972-1.504-16.134c-2.88-7.27,3.049-35.27-54.57-51.291c-6.449-1.634-12.184-5.075-18.417-7.293
		c-10.821-4.16-8.273-8.07-29.541-15.658c-1.223-2.933-2.586-5.984-5.302-7.834c-12.849-9.656-28.103-14.538-31.121-14.359
		C499.132,448.732,492.661,448.299,486.32,449.489z M310.957,666.339c1.58-2.153,4.328-2.77,6.785-3.311
		c24.823-6.783,33.767,26.542,12.974,31.651C321.632,697.739,294.214,689.973,310.957,666.339z M307.841,711.711
		C311.065,710.034,308.079,715.239,307.841,711.711L307.841,711.711z M312.266,715.91c-5.551,0.087-11.178-0.422-16.61,1.05
		c1.104-1.786,2.175-3.614,3.549-5.194C303.707,712.588,308.003,714.265,312.266,715.91z M219.856,857.057
		c-15.435-17.129-5.082-46.965,11.741-56.701c4.339-2.878,9.685-1.872,14.576-2.175c-0.108-3.82-3.657-5.854-5.995-8.365
		c-4.88-4.426-7.282-10.713-10.615-16.242c-10.848-21.225-15.769-32.025,4.902-43.922c26.917-10.89,38.786-2.921,56.128-8.116
		c-4.014,11.362-10.615,22.269-20.798,29.086c-2.348,1.634-5.237-0.206-7.791-0.292c-13.54,28.994,4.8,14.102-22.258,66.851
		c-5.313,10.007-3.837,21.371-22.637,29.411C218.947,849.785,220.289,853.291,219.856,857.057z M260.683,704.926
		c-1.093-5.194-1.688-11.265,1.558-15.842c3.073-4.61,6.947-9.111,12.249-11.178c8.465-3.743,27.351,6.422,25.429,20.873
		C296.108,725.535,267.354,725.577,260.683,704.926z M102.959,557.222c26.581-27.982,25.147-50.94,24.953-62.068
		c18.945,9.895,39.118,9.417,50.512,4.512c5.107,17.781,15.459,17.659,34.919,17.184c5.865-0.833,11.416-3.062,16.913-5.194
		c-0.076,7.12,1.677,14.435,6.027,20.181c4.285,5.021,11.394,3.452,17.194,3.29c-0.195,6.687-0.757,14.424,4.188,19.694
		c10.16,9.88,18.86,7.025,25.104,6.384c-5.475,11.87-15.972,22.053-16.48,35.741c-0.643,5.706,2.149,19.8,20.322,15.939
		c5.649-2.294,10.431-6.19,15.571-9.382c-2.717,7.804-13.106,29.507,4.556,45.069c1.136,1.32,3.809,2.943,1.937,4.804
		c-5.832,8.559-11.037,18.147-10.951,28.805c-10.939-10.573-23.04-12.364-33.707-1.666c-15.708-28.191-15.383-20.578-32.041-37.267
		c-4.282-3.594-48.812-49.759-61.939-74.404c-16.217-31.33-15.574-32.107-19.542-35.233c1.58,5.107,4.761,9.468,6.958,14.294
		c34.187,74.791,91.053,102.079,104.778,134.514c-7.082,10.392-5.127,9.05-5.735,20.798c-21.788-17.258-15.301-39.9-14.846-48.38
		c-3.344,0.876-5.183,3.95-7.618,6.114c-3.895,3.757-14.314,8.535-22.854-6.471c-5.562-9.198-4.133-20.408-5.692-30.623
		c-5.897,1.894-12.823,3.95-18.579,0.574c-8.711-4.599-14.424-13.753-15.257-23.503c-7.526,2.433-20.107,7.244-26.976-7.65
		c-3.03-5.335-2.705-11.632-4.404-17.357c-5.021,5.562-10.323,11.319-17.595,13.894
		C122.323,571.773,121.756,557.814,102.959,557.222z M121.776,741.901c-9.255-22.296-30.377-24.261-53.444-21.858
		c3.225-5.194,6.114-10.832,6.417-17.054c0.227-7.531,1.017-15.398-1.861-22.561c-2.478-7.585-7.326-15.409-15.539-17.53
		c-6.081-2.316-12.39-0.206-18.363,1.277c4.28-22.552,0.334-39.205-17.27-59.526c20.579,6.117,48.622-3.321,58.562-9.414
		c12.812,7.023,28.459,4.382,41.303-1.169c6.493-2.478,11.773-7.077,17.227-11.243c4.954,31.49,28.054,23.343,30.45,23.557
		c3.653,6.387,11.094,28.755,34.161,22.215c0.437,4.612-0.311,33.732,18.763,39.702c5.908,1.461,11.07-2.132,15.55-5.443
		c0.154,33.961,7.534,29.203,26.262,53.607c-58.942,5.816-30.299,24.807-124.451,10.68c-5.551-0.584-11.037-1.666-16.383-3.246
		c1.179,5.659,3.95,10.853,4.848,16.588C125.931,740.971,123.886,741.62,121.776,741.901z M207.347,866.612
		c-15.636,4.869-27.885,20.17-27.929,36.737c-13.387-18.093-37.788-8.268-42.613,23.719c-29.723-24.111-34.616-21.452-58.573-6.179
		c3.991-28.218,0.015-56.523-28.286-57.599c27.461-15.164,29.422-42.934,15.366-55.901c3.852-0.325,8.018,0.216,11.503-1.785
		c12.455-6.081,19.012-21.782,15.117-34.995c22.909,0.8,37.854-8.63,39.388-17.01c1.439-8.354-0.693-16.826-3.582-24.639
		c106.674,17.572,77.72-4.521,136.04-10.334c1.807-0.411,3.322,0.768,4.837,1.536c-18.802,1.238-43.381,4.636-50.901,22.01
		c-0.974,4.144-0.335,8.451-0.173,12.66c0.132,7.491,13.531,32.073,20.722,39.507c-16.902,2.133-33.721,27.879-28.34,53.368
		c1.374,6.579,6.687,11.221,9.111,17.335C215.127,865.519,211.2,865.8,207.347,866.612z M197.327,931.342
		c4.902-2.846,8.57-7.239,12.704-11.016c2.186,8.981,1.158,18.244,1.742,27.377C208.695,941.783,208.372,937.907,197.327,931.342z
		 M215.203,936.742c0.206-8.408-0.357-17.432-5.14-24.661c-0.909-1.71-2.64-3.398-1.915-5.486
		c2.875-10.912,15.29-31.795,15.29-59.179c8.224-3.441,11.405-12.487,17.952-17.919c4.361-3.593,8.992-6.828,13.753-9.869
		C250.21,832.288,221.496,881.919,215.203,936.742z M259.385,814.953c-7.737,1.71-13.786,7.034-20.116,11.427
		c3.935-11.78,13.618-25.615,20.17-47.904C263.15,790.422,259.937,802.833,259.385,814.953z M308.728,736.642
		c-30.453,21.081-40.105,50.725-43.327,57.112c-0.31-20.898-9.969-24.779-0.996-38.479c12.804,1.168,24.209-20.263,29.692-31.272
		c2.283-0.271,4.307,1.677,6.482,2.305c9.317,3.852,19.434,0.812,28.708-1.526C319.606,730.237,326.704,723.545,308.728,736.642z
		 M420.994,758.457c-11.367-8.148-44.182-28.413-78.386-38.771c-3.841-1.428-7.791,0.227-11.589,0.963
		c-17.071,3.469-18.32,6.351-32.69,0.26c-0.151-0.638-0.444-1.904-0.595-2.543c24.091-0.837,20.46,1.906,31.099,0.79
		c-5.724-3.582-14.056-0.065-18.19-6.449c9.003,1.699,18.255,1.482,27.247,3.257c10.334,3.787,21.598,4.188,31.857,8.278
		c10.085,4.274,19.445,10.031,29.335,14.706c-3.917-8.549-10.864-15.452-14.251-24.304c-0.899-3.359-23.094-102.076-23.157-102.398
		c-6.812-26.14-7.138-61.089-17.779-73.398c-3.203-4.231-9.014-5.086-12.368-9.133c-14.51-16.319-34.95-28.251-54.634-28.307
		c-3.106-33.339-20.366-45.284-44.636-53.239c-0.254-14.576-1.013-22.906-20.019-34.032c9.966-5.746,14.294-17.443,16.08-28.221
		c1.177-17.929-5.931-25.804-12.466-34.042c17.179-17.393,15.552-36.995,4.112-50.371c4.512-4.177,9.901-8.051,12.065-14.067
		c5.492-15.171-4.4-34.576-12.098-42.201c8.137,0.649,14.121,6.579,20.419,11.059c19.815,13.274,53.994,2.06,55.035,1.861
		c-0.519,9.144-1.85,19.11,3.149,27.355c6.988,12.807,27.5,10.718,29.032,10.788c3.861,21.771,17.897,23.468,25.342,26.63
		c0.987,5.345,1.532,20.205,22.875,22.064c-2.272,6.698-5.562,13.223-5.757,20.441c-0.26,24.278,3.448,27.063,10.204,33.718
		c-9.714,16.153-11.536,52.424,8.245,65.282c-14.341,54.09-36.982,69.819-34.421,87.14c8.224,57.366,5.531,50.083,21.782,109.918
		c0.232,1.003,9.582,41.496,13.072,46.486c0.063-5.979-18.833-74.692-20.733-86.437c5.897,4.805,9.284,11.806,13.742,17.833
		c7.442,10.48,10.308,29.21,11.86,41.942c0.898,7.369-2.294,14.327-3.831,21.393c13.473-8.863,2.84-54.071-6.006-66.288
		c-4.718-6.428-8.419-13.764-14.695-18.893c-2.326-1.904-4.274-5.064-4.047-8.062c6.491-5.499,16.141-7.903,19.131-36.282
		c0.66-8.862-2.359-17.378-4.534-25.84c31.717,7.493,54.811-15.005,54.57-40.037c25.373-0.5,36.464-16.092,40.578-41.033
		c7.278-0.535,8.892,1.571,22.399-5.183c4.015-2.067,6.882-5.703,10.637-8.105c7.095,0.471,22.49,9.279,26.273,12.531
		c2.391,1.915,2.424,5.194,3.03,7.942c17.05,2.626,18.306,8.105,26.457,12.411c1.807,1.028,3.787,1.84,5.367,3.236
		c-0.523,21.945-1.37,19.435,5.107,28.286c-25.051,9.771-36.039,51.728-25.656,60.456c-22.513,8.624-43.859,48.019-33.382,71.504
		c-6.558,1.006-13.288,1.244-19.597,3.474c-17.086,5.584-33.696,12.596-49.83,20.495c-13.169,5.8-28.459,5.649-40.784,13.559
		c-4.992,3.328-21.655,28.524-3.257,46.378c6.092,5.919,12.109,12.033,19.337,16.588
		C421.081,752.711,421.059,755.579,420.994,758.457z M395.5,709.742c6.191-30.79,28.654-23.693,52.178-34.183
		c15.485-7.207,30.969-14.608,47.33-19.683c12.65-4.034,20.542-2.255,26.738-5.378c-17.437-19.129,7.125-59.215,23.46-67.717
		c-0.397,1.311-6.208,14.026,0.13,23.99c4.556,6.276,11.048,11.373,18.872,12.65c-2.218,5.865-8.592,7.315-13.818,9.252
		l-0.693,1.125c3.127,3.69,8.083,0.162,12.022,0.032c25.621-2.075,50.049,2.02,67.219,26.587
		c18.752,26.508,16.405,42.017,11.351,91.144c-15.162-22.151-6.679-47.899-6.59-50.717c-6.298,1.85-10.724,8.343-17.746,7.986
		c-23.702-1.094-36.521-13.739-39.388-30.082c-0.39-1.612-0.346-3.982-2.673-3.203c-2.748,3.766-4.826,8.235-8.841,10.886
		c-4.542,2.905-23.684,11.164-32.344,11.741c-20.441,1.196-22.783-4.1-28.589-10.691c-2.381,3.766-2.803,8.808-6.579,11.6
		c-13.576,10.861-23.027,6.211-33.361,1.948c-1.85,4.155,0.227,9.187-2.51,13.05c-15.368,21.994-45.967-3.112-60.824-2.922
		c-0.498,0.53-1.482,1.591-1.98,2.132c3.798,2.446,7.91,4.924,9.955,9.165c4.804,9.317,10.377,18.514,12.282,28.967
		C409.758,740.458,392.303,723.352,395.5,709.742z M420.291,734.262c-3.787-7.585-6.904-15.582-12-22.432
		c10.37,4.413,28.407,12.439,40.827,10.518c9.209-2.207,18.19-9.998,17.519-20.235c17.005,7.898,34.1-1.905,38.306-12.606
		c9.479,8.316,18.785,13.637,46.865,2.694c16.459-6.699,14.822-7.191,21.858-14.305c7.759,19.805,20.163,30.216,42.288,30.634
		c5.67,0.325,10.085-3.776,14.576-6.612c-8.583,22.67,7.935,49.424,8.516,51.161c0.162,2.586-0.455,5.14-0.584,7.737
		c0.552-0.184,1.645-0.552,2.197-0.725c0.141,5.8-0.119,11.632,0.714,17.4c-12.659-14.587-33.425-13.055-52.47-14.781l-0.638,0.714
		l0.303,0.768c10.682,2.032,45.511,1.053,51.421,16.978c0.065,2.662-1.06,5.183-1.721,7.737c-5.659-0.812-11.329,0.314-16.826,1.537
		c-22.669,5.752-33.122,11.777-48.11,41.509c-10.843-25.725-30.558-35.823-43.998-34.832c-3.03-0.108-6.666,2.002-9.057-0.747
		c-15.389-13.105-28.953-10.81-41.314-1.212c2.586-4.318,2.002-10.453-2.575-13.158c-6.731-3.755-14.435-0.4-21.35,0.985
		c-0.417-3.304,2.072-12.806-14.933-20.084c-5.086-2.088-10.226-4.285-15.734-4.913
		C424.749,749.919,423.883,741.598,420.291,734.262z M451.401,784.308c-3.777-3.495-6.979-7.564-10.994-10.81
		c-4.75-3.787-9.306-7.802-13.818-11.86C433.598,764.48,454.204,769.777,451.401,784.308z M461.356,805.658
		c-3.387-5.465-5.356-11.632-8.408-17.27c1.277-0.974,2.565-1.926,3.885-2.846c7.142,8.613,11.481,19.088,17.811,28.264
		c-1.731,2.619-3.322,5.346-4.545,8.256C467.47,816.446,464.591,810.949,461.356,805.658z M348.711,754.908
		c5.053,8.321,10.68,17.292,19.921,21.425c18.643,8.317,28.329-3.942,33.858-7.358c7.761,11.393,15.25,18.252,29.855,12.357
		c5.694,20.524,17.979,57.057,38.533,51.832c4.88,6.298,8.44,13.429,13.017,19.943c-5.129,3.149-9.825,7.553-10.734,13.818
		c-16.487-10.439-28.057-9.566-36.434-17.173c-32.47-27.766-22.697-36.374-34.086-50.36c-4.383-5.54-9.014-11.135-15.149-14.814
		c-2.262,4.382-2.835,9.306-3.625,14.11c-5.529-3.181-7.326-9.89-12.379-13.559c-3.701-2.673-8.289-3.809-11.849-6.698
		c-4.318-3.474-8.191-7.456-12.336-11.113C348.808,763.348,348.765,759.074,348.711,754.908z M343.625,772.373
		c0.152,2.727,1.493,6.006-0.757,8.245c-5.571,2.886-21.284-3.967-26.684-6.687C325.305,773.963,334.99,776.409,343.625,772.373z
		 M391.064,832.515c-43.258-38.003-33.503-32.298-75.962-55.403c10.138,3.269,25.182,12.656,31.337,4.61
		c0.866-4.198,0.043-8.538-0.736-12.693c15.818,16.624,15.744,13.799,23.687,18.385c6.319,3.603,7.661,12.552,14.857,14.987
		c4.599-2.662,3.214-8.711,4.642-13.05c28.764,23.322,14.358,40.833,26.728,63.778C407.955,845.652,398.995,839.678,391.064,832.515
		z M422.195,861.353c-2.122-9.394-9.913-15.526-9.944-34.886c6.652,10.283,20.914,26.301,31.186,30.775
		C436.262,857.425,428.006,856.137,422.195,861.353z M510.861,908.521c-23.462-19.751-22.459-10.459-58-30.645
		c-1.067-0.599-21.301-13.897-24.314-16.296c45.673-4.22,35.701,16.025,65.867,10.702c1.375,15.908,3.279,11.265,9.674,21.404
		C507.042,898.284,508.611,903.565,510.861,908.521z M505.494,889.887c-9.34-9.476-7.042-10.973-7.575-22.886
		c-9.402,2.194-5.383,3.631-20.679,1.266c1.271-12.356,21.775-21.493,32.787-10.745c8.286,8.068,10.814,18.199,3.636,26.792
		C511.305,886.652,508.286,888.145,505.494,889.887z M513.026,889.931c8.234,7.646,19.666,37.713,22.194,43.695
		C533.28,930.661,520.47,912.724,513.026,889.931z M295.05,865.941c-3.96-6.384-9.804-11.329-15.928-15.539
		c20.979-0.579,16.972-4.782,18.709-14.143c7.847,7.093,19.799,31.64,29.498,19.142c1.017-3.095-0.227-6.33-0.768-9.392
		c25.85,16.738,19.315,34.169,50.209,37.299c5.324,0.595,10.485-1.353,14.792-4.361c10.748,17.681,21.453,16.49,30.72,26.197
		c-29.91-5.826-60.511,9.926-71.558,7.499C338.076,909.639,311.496,892.35,295.05,865.941z M445.579,993.659
		c-3.214,9.111,1.017,18.482,1.547,27.691c-7.665-3.349-32.387-15.087-42.677-1.753c-4.015,3.354-2.878,8.895-2.013,13.375
		c-5.508,0.271-11.113-0.519-16.534,0.638c-22.96,7.188-29.363,17.44-40.362,28.957c-3.96,4.133-6.254,9.479-8.083,14.824
		c-3.307-0.059-20.307-2.891-38.782,11.719c-23.452,18.25-36.378,31.078-42.818,39.085c3.214-11.578,2.835-23.763,2.186-35.644
		c-1.196-22.969-4.653-41.37-24.964-52.524c17.227-17.674,29.533-28.226,6.189-57.405c37.343,2.925,41.275-13.845,23.947-31.521
		c23.853,2.722,26.381-3.717,35.016-0.541c7.607,2.207,14.835,7.953,23.157,5.876c9.122-1.234,16.134-8.657,19.575-16.794
		c2.337-6.287-1.731-12.498-5.4-17.346c9.111-3.409,18.644-5.41,28.188-7.196c35.017-7.351,66.441-17.209,86.935,12.228
		c-26.428,8.773-29.314,9.176-66.527,33.047c-2.153,1.482-3.776,3.571-5.367,5.627c15.777-10.583,53.122-33.356,73.679-36.412
		c14.933,1.872,29.53,5.594,44.268,8.527c-10.57,0.767-19.554,5.286-17.486,11.427c1.082,4.116,14.857,14.345,22.053,21.425
		C472.484,966.732,453.4,968.767,445.579,993.659z M507.907,974.734c6.4,3.078,32.503,21.359,36.769,24.639
		c22.648,17.794,14.978,13.911,29.671,40.232c-8.116-1.147-15.549-4.718-23.438-6.731c-20.367-7.865-20.399-3.49-70.022-38.014
		c-7.131-5.508-14.868-10.366-21.122-16.902c8.667-6.254,31.72-4.868,38.436-3.636C501.404,975.037,504.726,974.149,507.907,974.734
		z M557.781,1055.868c7.661,2.716,14.738,6.925,22.572,9.284c-5.324,3.43-7.878,9.739-13.223,13.093
		c-15.766,1.656-31.727,0.628-47.504,2.229c-11.306-0.183-58.537,9.306-72.835,11.654c-18.071,2.846-34.811,10.572-51.789,17
		c-4.027-0.138-17.378-6.031-20.495-11.308C381.838,1071.5,527.386,1050.967,557.781,1055.868z M901.862,1186.238
		c-45.944,17.023-296.189,37.528-438.602,20.43c-37.155-4.983-99.061-19.088-110.968-26.901
		c-3.672-5.262-11.055-51.655-10.053-67.035c26.535,18.224,53.958,24.346,78.613,28.026c35.357,7.835,130.91,13.006,166.977,12.422
		c0,0,44.224-2.954,136.278-3.268c72.669-2.883,81.826-5.562,94.098-6.752c96.132-17.146,85.322-11.842,95.31-22.691
		C912.117,1135.416,903.307,1171.741,901.862,1186.238z M909.556,1108.371c2.056,2.846,0.671,6.449-0.141,9.501
		c-8.705,28.292-492.02,58.377-566.18-9.403c0.647-22.135,62.446-34.824,76.947-38.955c-11.797,4.189-51.854,14.704-48.813,30.363
		c18.619,31.437,232.499,29.317,274.817,28.427c140.194-1.994,194.625-0.211,224.619-16.513c3.344-1.796,7.921-3.073,8.819-7.337
		c-3.418-13.675-45.353-28.148-55.868-32.008C870.492,1083.824,902.584,1094.332,909.556,1108.371z M874.529,1105.211
		c-7.38,5.086-16.21,7.65-24.596,10.615c-24.357-16.783-115.211-42.782-177.787-41.693c-3.82-0.379-8.408,0.454-11.373-2.543
		c-7.207-5.573-12.985-12.812-17.638-20.581C780.043,1048.058,875.68,1090.881,874.529,1105.211z M750.543,973.284
		c-2.405,0.508-54.366,14.376-102.073,37.018c-5.713,3.279-12.022,8.007-12.336,15.214c-1.848,24.946,9.474,36.771,27.29,52.124
		c3.571,2.283,7.466,4.025,11.438,5.519c-0.444-4.307-5.227-5.183-8.386-6.882c79.431-0.171,163.126,29.987,180.211,40.254
		c-23.593,6.371-100.533,8.515-113.933,8.213c-99.899-1.056-240.689,7.561-334.689-14.403c46.962-18.41,30.067-11.998,82.39-21.891
		c27.072-3.87,26.531-6.359,71.602-6.709c5.097,0.097,10.366-0.519,15.247,1.331c2.337-2.099,4.794-4.069,7.499-5.703
		c-0.357-0.422-1.06-1.288-1.418-1.71c2.857-2.857,5.27-6.146,8.354-8.754c3.387-0.671,6.828,0.411,10.247,0.509
		c-0.162-0.703-0.476-2.099-0.638-2.803c-18.082-1-51.24-21.12-61.17-27.052c-10.007-5.967-69.092-51.177-74.101-56.074
		c0.454-0.335,1.374-1.006,1.829-1.342c26.339,20.816,63.482,49.264,96.349,56.431c8.018,1.85,15.744,5.681,24.163,5.237
		c-5.865-9.695-9.338-20.679-15.831-30.006c-12.286-15.859-32.57-21.125-69.794-53.791c-3.593-3.354-7.964-6.146-10.128-10.723
		c4.718,1.45,7.499,5.778,11.135,8.808c18.173,15.899,61.665,40.643,66.278,41.736c-0.037-1.234-24.741-82.066-44.852-109.561
		c2.088-2.608,4.112-5.259,6.135-7.91c12.043,16.497,15.477,29.55,45.761,86.513c35.479,79.182,18.775,54.051,39.345,83.753
		c2.835-3.116,2.932-7.477,3.82-11.362c21.316-115.865,32.267-81.686-24.855-131.603c-11.385-9.853-41.983-31.833-45.567-33.491
		c-4.307-1.742-8.191-4.556-11.319-7.964c-1.201-2.467-2.197-5.032-3.463-7.466c0.584,0.119,1.753,0.379,2.337,0.498
		c0.92,3.225,3.279,5.919,6.731,6.46c-1.223-2.153-2.803-4.036-4.242-6.016c1.58,0.065,3.17,0.152,4.761,0.271
		c0.682,2.153,0.898,4.512,2.056,6.503c1.558,0.638,3.214,0.952,4.859,1.331c-1.948-3.008-4.101-5.919-5.421-9.284
		c11.672,16.724,46.069,40.762,60.186,52.438c10.713,7.91,20.192,17.995,32.592,23.265c3.579-7.328,9.668-96.313,12.736-120.891
		c4.545,0.92,9.035,3.744,9.901,8.635c-0.649,3.149-2.153,6.049-2.911,9.176c4.404,1.071,7.25-2.878,10.648-4.859
		c-0.283,69.332-9.383,77.439-4.047,96.738c27.409-14.405,81.435-74.801,95.094-86.578c7.943-7.964,16.707-15.052,24.434-23.232
		c5.032-4.707,9.154-10.334,14.424-14.792c2.37-0.335,4.772-0.065,7.163,0.097c0.011,0.628,0.033,1.894,0.043,2.521
		c-6.725,6.133-131.322,132.036-131.322,132.036c-14.778,24.411-8.351,5.862-16.21,26.868c-2.565,11.795-5.097,23.73-5.01,35.871
		c17.457-1.734-8.919,3.83,106.943-30.948C750.478,967.635,750.208,970.47,750.543,973.284z M797.333,980.057
		c1.731,4.209,2.792,9.165,6.774,11.924c2.143,1.85,5.205,2.629,6.979,4.869c3.474,8.321,12.617,12.379,15.885,20.884
		c-12.148-8.991-21.653-2.176-35.417-17.519c-24.698-27.769-16.547-16.901-38.252-30.104c0.606-4.837,2.11-9.934,0.346-14.706
		c-2.121-6.536-8.321-11.416-8.332-18.666c-0.454-11.329,3.3-22.291,3.874-33.566c5.908,2.629,10.767,7.261,13.375,13.223
		c-0.325,2.489-1.742,4.761-1.71,7.326c0.498,10.356,6.482,19.921,5.281,30.45c-0.455,4.75-5.151,7.553-5.843,12.206
		c5.443-1.277,10.799-4.556,16.578-3.203c6.72,2.554,9.089,10.637,15.744,13.299C794.27,977.471,796.597,978.034,797.333,980.057z
		 M795.417,973.619c-6.395-3.495-9.685-10.864-16.426-13.84c-3.582-0.757-7.293-0.271-10.918-0.411
		c3.506-9.241,1.006-19.174-2.64-27.939c3.755,5.454,9.674,9.219,12.52,15.311c1.201,3.733-3.3,5.919-4.631,8.96
		c2.143-1.082,4.123-2.445,6.081-3.831C786.631,957.55,790.278,966.228,795.417,973.619z M818.552,952.562
		c-9.133,1.807-17.898,5.043-26.933,7.217c-1.915-2.391-3.809-4.794-5.605-7.25c10.994-1.948,22.031-3.787,32.69-7.218
		C818.141,947.692,818.141,950.138,818.552,952.562z M877.829,873.753c3.116,3.474,5.129,7.704,7.337,11.773
		c-2.153,0.476-4.274,1.093-6.157,2.251c2.121,0.151,4.274,0.184,6.428,0.227c5.897,6.19,11.654,12.714,14.846,20.776
		c-4.263-1.472-9.144-2.597-11.741-6.655c-3.625-5.497-8.408-10.323-14.608-12.823C876.736,884.574,877.072,879.056,877.829,873.753
		z M989.284,907.45c6.839-0.368,12.444,5.421,19.359,4.35c23.909-3.919,18.387,3.939,38.576-2.954
		c1.394,11.162,14.208,26.211,34.951,26.868c-2.84,11.601-2.411,15.756,4.999,33.913c6.512,16.12,19.98,20.156,27.074,22.421
		c-3.61,11.837-0.873,33.022,18.309,55.316c-1.282,3.596-16.256,15.086-6.915,67.035c-0.919-1.001-36.781-48.424-71.591-44.452
		c-1.829-0.173-4.263,0.909-5.616-0.736c-6.666-8.765-17.216-14.035-27.961-15.658c-10.65-25.332-40.075-21.232-48.748-21.782
		c-0.368-7.878,0.585-27.678-13.158-39.485c-6.341-4.404-13.753-7.38-21.458-8.116c-2.078-53.07-24.379-59.344-28.307-66.981
		c6.828,0.26,12.628,4.35,19.24,5.562c-5.497-4.74-12.909-5.594-19.478-8.04c-0.195-0.671-0.574-2.023-0.768-2.694
		C907.931,912.017,979.298,907.37,989.284,907.45z M907.933,931.255c0.682,3.657,3.008,6.676,4.859,9.825
		c-0.909,2.099-1.785,4.22-2.597,6.373c-10.222-7.859-12.2-6.679-13.418,32.939c-35.37,4.271-37.778-13.161-58.292-21.815
		c-3.647-1.482-7.65-1.645-11.362-2.878c-3.29-0.833-3.961-4.653-5.584-7.153c4.35-6.687,11.048-11.524,14.976-18.504
		c5.169-10.4,1.827-12.951,14.5-30.937c3.538-4.978,4.469-11.135,5.973-16.902c3.991-15.813,7.594-13.645,0.628-25.526
		c5.93,2.716,11.697,6.622,15.279,12.173c5.197,25.985-15.675,18.253-15.008,26.273c5.129,0.162,9.879-4.004,15.008-1.829
		c6.525,2.294,9.533,9.035,14.132,13.656c3.95,4.177,10.107,4.307,15.019,6.752C905.122,915.107,906.437,923.692,907.933,931.255z"
		/>
	<path d="M576.663,98.601c-1.878-25.736-4.596-67.656-10.431-71.158c0.184,2.283,0.541,4.567,1.071,6.796
		C573.891,59.876,571.453,94.609,576.663,98.601z"/>
	<path d="M575.938,134.884c0.119,7.358-0.887,14.684-0.649,22.042c2.455-3.354,4.589-40.553,0.877-46.357
		C575.224,118.652,576.782,126.779,575.938,134.884z"/>
	<path d="M575.137,161.33c-1.169,0.942-0.779,3.365,0.844,3.528C578.319,164.684,577.366,160.053,575.137,161.33z"/>
	<path d="M576.09,172.01C574.358,175.202,579.704,172.248,576.09,172.01L576.09,172.01z"/>
	<path d="M576.209,181.046c0.216,2.478,0.736,4.923,1.666,7.239C578.005,185.774,579,182.485,576.209,181.046z"/>
	<path d="M515.579,331.661c-0.097-0.617-0.303-1.829-0.4-2.446c-150.14-21.656-113.544-47.477-165.245-74.231
		c1.32,2.597,3.787,4.166,6.179,5.659c15.142,9.169,25.452,23.692,34.648,32.214c17.167,15.857,46.321,20.12,62.62,26.37
		C469.56,325.581,466.433,323.633,515.579,331.661z"/>
	<path d="M320.057,453.655c-13.002-24.977-30.946-69.822-33.134-78.44c-6.576-20.122-13.18-82.118-39.572-100.32
		c4.683,10.99,17.519,6.933,32.43,81.254c5.372,27.341,26.721,75.282,36.044,93.817c29.568,57.44,28.034,66.111,30.363,76.742
		c0.931,3.235,1.385,7.088,4.426,9.133C345.346,506.565,342.708,500.26,320.057,453.655z"/>
	<path d="M742.644,278.779c-0.216,0.325-0.66,0.974-0.887,1.298C742.655,283.443,746.193,278.044,742.644,278.779z"/>
	<path d="M740.209,283.865c-7.155,5.839-23.525,34.153-39.658,59.147C688.446,363,657,407.403,655.525,412.406
		C662.026,408.17,739.42,285.807,740.209,283.865z"/>
	<path d="M525.48,430.856c-3.253-4.105-34.016-25.98-35.016-26.641c-10.214-6.903-25.899-23.34-36.726-28.297
		c-6.85-3.495-14.749-4.653-21.079-9.165c-4.35-3.008-9.241-5.421-14.554-5.973c0.249,0.509,0.768,1.526,1.017,2.034
		c6.211,2.251,11.697,5.908,17.432,9.1c32.099,11.441,14.558,5.699,73.268,48.715C515.103,423.93,519.626,428.497,525.48,430.856z"
		/>
	<path d="M596.206,482.569c3.073,2.413,5.897,5.151,9.241,7.228c-4.274-9.445-68.549-50.909-71.017-52.167
		C542.118,446.528,579.613,468.998,596.206,482.569z"/>
	<path d="M903.301,458.222c-0.141-1.677-2.662-1.666-3.409-0.455C898.508,460.213,903.269,460.635,903.301,458.222z"/>
	<path d="M889.137,461.317c1.959-0.379,3.841-1.125,5.443-2.359c-11.914,0.833-22.875,6.092-34.356,8.938
		c-6.027,1.969-12.898,2.673-17.8,7.012C842.423,474.907,879.987,463.308,889.137,461.317z"/>
	<path d="M831.537,478.63c3.614-0.465,7.38-1.353,10.085-3.993C837.889,474.734,834.232,476,831.537,478.63z"/>
	<path d="M812.363,485.328c6.016-1.179,12.141-2.922,17.205-6.503C823.638,480.307,817.405,481.703,812.363,485.328z"/>
	<path d="M610.835,494.417c-1.125-2.023-3.008-3.365-5.021-4.404C607.102,491.875,608.736,493.487,610.835,494.417z"/>
	<path d="M535.414,497.101c-4.004,4.263-7.834,8.992-9.858,14.543C530.079,507.792,533.142,502.522,535.414,497.101z"/>
	<path d="M962.124,512.575c0.249,4.361-1.883,9.198,0.876,13.126c1.19-9.62,1.926-19.359,1.05-29.021
		C961.139,501.451,962.524,507.283,962.124,512.575z"/>
	<path d="M619.622,503.745c0.638-1.547-1.699-3.463-3.138-2.781C615.954,502.446,618.161,504.589,619.622,503.745z"/>
	<path d="M741.086,512.261c3.798-0.855,7.726-2.056,10.539-4.902C747.784,508.063,743.748,509.21,741.086,512.261z"/>
	<path d="M525.264,511.46c-2.51,2.197-4.447,4.999-5.497,8.181C522.635,517.758,524.398,514.717,525.264,511.46z"/>
	<path d="M721.511,524.056c5.681-3.798,12.357-6.049,17.432-10.734c-8.278,2.781-15.831,7.358-23.167,12.011
		c-0.054,0.281-0.152,0.866-0.195,1.158C717.821,527.042,719.563,524.878,721.511,524.056z"/>
	<path d="M621.321,517.574c1.417,7.185,4.664,13.829,6.547,20.895c1.342,3.538,1.526,7.845,4.556,10.485
		C631.748,541.944,625.209,520.853,621.321,517.574z"/>
	<path d="M520.654,519.608c-2.489,1.158-3.777,3.484-4.383,6.07C518.263,524.077,519.81,522.032,520.654,519.608z"/>
	<path d="M145.712,525.408c0.498-1.515-0.022-2.045-1.537-1.623C143.677,525.3,144.186,525.83,145.712,525.408z"/>
	<path d="M516.499,526.382c-2.056,1.18-3.452,3.116-4.437,5.237C514.064,530.375,515.439,528.438,516.499,526.382z"/>
	<path d="M149.456,531.966c0.519-1.775-0.097-2.381-1.84-1.818C147.108,531.912,147.714,532.518,149.456,531.966z"/>
	<path d="M405.932,671.425c35.907-57.414,94.392-114.228,105.07-137.869c0,0-37.989,48.981-57.21,70.173
		c-7.77,9.241-48.955,55.315-56.366,81.795C401.96,682.094,402.934,676.013,405.932,671.425z"/>
	<path d="M865.244,584.534c4.015-1.428,8.581-1.861,11.925-4.783c-19.442,1.901-111.342,50.031-116.606,55.392
		C768.635,632.941,837.456,592.93,865.244,584.534z"/>
	<path d="M943.371,614.583c3.679-2.976,5.768-7.347,7.607-11.589C947.645,606.186,944.226,609.887,943.371,614.583z"/>
	<path d="M173.5,696.529c33.943,16.905,79.544,18.946,83.981,19.521c-2.713-3.837-4.613-1.932-34.616-6.363
		c-29.337-3.997-64.963-22.943-78.289-28.859c-61.87-29.348-85.251-59.881-100.656-62.718c4.828,5.752,16.64,10.023,26.782,18.698
		C105.32,667.108,163.528,691.617,173.5,696.529z"/>
	<path d="M436.533,736.393c24.022,16.794,53.899,21.35,82.358,24.682c11.472,0.732,66.341,2.89,68.312,2.64l-0.303-0.66
		c-17.994-6.281-94.09,5.387-143.658-24.953c-3.841-2.359-7.315-5.865-12.044-6.179
		C432.486,733.937,434.531,735.171,436.533,736.393z"/>
	<path d="M218.33,734.998c-60.788,40.031-123.218,154.42-125.327,166.62c5.343-5.288-0.739,0.501,19.564-34.443
		c36.891-66.754,84.309-115.471,98.935-124.905C214.208,740.311,217.357,738.428,218.33,734.998z"/>
	<path d="M846.687,777.816c1.418-1.385-1.374-1.796-2.121-1.039C841.579,778.292,845.485,779.72,846.687,777.816z"/>
	<path d="M852.281,782.198c-1.699-2.619-4.848-2.51-7.596-2.359C846.871,781.679,849.305,783.345,852.281,782.198z"/>
	<path d="M858.86,784.341c-1.158,1.417,1.32,3.073,2.326,1.645C862.355,784.546,859.856,782.901,858.86,784.341z"/>
	<path d="M1207.237,867.272c0.909-1.212-1.104-2.911-2.078-1.72C1204.208,866.741,1206.22,868.44,1207.237,867.272z"/>
	<path d="M930.451,923.41c4.393,3.603,9.674,5.984,15.052,7.715C941.358,927.241,936.11,924.276,930.451,923.41z"/>
	<path d="M951.898,934.231c0.13-1.818-2.835-3.225-4.382-2.586C947.364,933.463,950.318,934.859,951.898,934.231z"/>
	<path d="M85.624,938.192c-0.574,1.764,0.022,2.348,1.796,1.742C87.972,938.159,87.376,937.575,85.624,938.192z"/>
	<path d="M970.315,945.139c0.876-1.255-1.212-2.835-2.186-1.688C967.242,944.673,969.319,946.264,970.315,945.139z"/>
	<path d="M1086.855,1043.543c8.971,14.868,20.138,28.524,26.609,44.787c1.601,2.835,2.099,7.412,6.006,7.921
		c-10.325-27.46-35.686-67.547-78.094-103.577c-23.349-18.365-57.668-42.223-66.711-45.545
		C987.018,959.773,1044.153,985.525,1086.855,1043.543z"/>
	<path d="M372.528,969.377c-1.482,0.714-1.526,1.439-0.13,2.175C373.859,970.827,373.902,970.102,372.528,969.377z"/>
	<path d="M356.892,982.481c4.804-2.608,9.382-5.811,12.888-10.031C364.996,975.069,360.473,978.326,356.892,982.481z"/>
	<path d="M349.771,990.132c2.153-1.288,3.971-3.041,5.335-5.151C352.682,985.911,351.048,987.957,349.771,990.132z"/>
	<path d="M330.337,1007.218c-4.61,4.696-10.475,8.375-13.559,14.381c3.657-2.022,20.754-17.924,23.438-22.616
		C336.115,1000.617,333.54,1004.372,330.337,1007.218z"/>
	<path d="M298.762,1043.424c3.84-1.976,16.662-18.156,18.579-21.901C313.459,1023.427,300.509,1039.451,298.762,1043.424z"/>
	<path d="M268.117,1099.433c10.162-18.917,3.739-13.832,25.115-46.129c2.164-3.268,4.826-6.298,6.071-10.074
		C294.808,1046.196,277.356,1069.773,268.117,1099.433z"/>
	<path d="M843.321,1581.567c-19.36,8.513-67.174,19.089-88.796,22.659c-111.166,24.8-221.517,4.631-288.376-6.081
		c-13.257-2.544-43.359-12.671-43.359-12.671c2.51,13.762,198.723,54.766,356.093,17.487c8.6-1.632,52.145-11.347,67.684-19.207
		c3.338-32.167,15.577-114.676,16.188-124.472c3.856-24.958,23.644-244.512,23.676-245.514c-0.693-0.011-2.067-0.022-2.749-0.032
		C876.797,1313.702,860.774,1461.723,843.321,1581.567z"/>
</g>
<path d="M972.122,582.781c43.541-44.302,169.254-157.758,244.058-170.375C1145.328,426.719,1024.55,533.285,972.122,582.781z"/>
</svg>
